<mxfile host="65bd71144e">
    <diagram id="loKGn3BAjzysxVO12f3Z" name="Page-1">
        <mxGraphModel dx="2218" dy="1161" grid="0" gridSize="10" guides="1" tooltips="1" connect="1" arrows="1" fold="1" page="0" pageScale="1" pageWidth="850" pageHeight="1100" background="none" math="0" shadow="0">
            <root>
                <mxCell id="0"/>
                <mxCell id="1" parent="0"/>
                <mxCell id="2" value="&lt;table border=&quot;1&quot; width=&quot;100%&quot; height=&quot;100%&quot; cellpadding=&quot;4&quot; style=&quot;width:100%;height:100%;border-collapse:collapse;&quot;&gt;&lt;tbody&gt;&lt;tr&gt;&lt;th style=&quot;line-height: 160%;&quot; align=&quot;center&quot;&gt;&lt;i style=&quot;&quot;&gt;&lt;font style=&quot;font-size: 16px;&quot;&gt;Ensambladora&lt;/font&gt;&lt;/i&gt;&lt;/th&gt;&lt;/tr&gt;&lt;tr&gt;&lt;td align=&quot;center&quot;&gt;- cantMotores:&amp;nbsp;&lt;i&gt;&lt;font style=&quot;color: light-dark(rgb(192, 192, 192), rgb(167, 191, 255));&quot;&gt;int&lt;/font&gt;&lt;/i&gt;&lt;br&gt;- carrosProducidos:&amp;nbsp;&lt;i&gt;&lt;font style=&quot;color: light-dark(rgb(192, 192, 192), rgb(167, 191, 255));&quot;&gt;int&lt;/font&gt;&lt;/i&gt;&lt;br&gt;- planProdAnualMotor:&amp;nbsp;&lt;span style=&quot;color: rgb(6, 34, 255);&quot;&gt;string&lt;/span&gt;&lt;br&gt;&lt;font style=&quot;color: light-dark(rgb(192, 192, 192), rgb(255, 255, 255));&quot;&gt;- &lt;/font&gt;&lt;font style=&quot;color: light-dark(rgb(192, 192, 192), rgb(192, 192, 192));&quot;&gt;planProdAnualCarro&lt;/font&gt;&lt;font style=&quot;color: light-dark(rgb(192, 192, 192), rgb(192, 192, 192));&quot;&gt;:&amp;nbsp;&lt;/font&gt;&lt;span style=&quot;color: rgb(6, 34, 255);&quot;&gt;string&lt;br&gt;&lt;br&gt;- &lt;/span&gt;&lt;span style=&quot;color: rgb(6, 34, 255);&quot;&gt;&lt;font style=&quot;color: light-dark(rgb(6, 34, 255), rgb(192, 192, 192));&quot;&gt;gananciaTotal&lt;/font&gt;&lt;/span&gt;&lt;span style=&quot;color: rgb(6, 34, 255);&quot;&gt;: float&lt;br&gt;- &lt;/span&gt;&lt;span style=&quot;color: rgb(6, 34, 255);&quot;&gt;&lt;font style=&quot;color: light-dark(rgb(6, 34, 255), rgb(192, 192, 192));&quot;&gt;listaCarros &lt;/font&gt;&lt;/span&gt;&lt;span style=&quot;color: rgb(6, 34, 255);&quot;&gt;[ ]&lt;br&gt;-&lt;/span&gt;&lt;span style=&quot;color: rgb(6, 34, 255);&quot;&gt;&lt;font style=&quot;color: light-dark(rgb(6, 34, 255), rgb(192, 192, 192));&quot;&gt;listaMotores &lt;/font&gt;&lt;/span&gt;&lt;span style=&quot;color: rgb(6, 34, 255);&quot;&gt;[ ]&lt;/span&gt;&lt;/td&gt;&lt;/tr&gt;&lt;tr&gt;&lt;td align=&quot;center&quot;&gt;+ Ensambladora&lt;i style=&quot;&quot;&gt;(&lt;/i&gt;&lt;font style=&quot;color: light-dark(rgb(192, 192, 192), rgb(192, 192, 192));&quot;&gt;cantMotores&lt;/font&gt;&lt;i style=&quot;&quot;&gt;&lt;font style=&quot;&quot;&gt;&lt;font&gt;:&lt;/font&gt;&lt;span style=&quot;color: rgb(53, 74, 129);&quot;&gt;int,&lt;/span&gt;&lt;span style=&quot;color: rgb(53, 74, 129);&quot;&gt;&lt;font&gt;....&lt;/font&gt;&lt;/span&gt;&lt;/font&gt;&lt;/i&gt;&lt;span style=&quot;color: rgb(167, 191, 255);&quot;&gt;&lt;span style=&quot;color: rgb(167, 191, 255);&quot;&gt;&lt;span style=&quot;color: rgb(6, 34, 255);&quot;&gt;&lt;i style=&quot;&quot;&gt;&lt;font&gt;)&lt;br&gt;&lt;/font&gt;&lt;/i&gt;&lt;/span&gt;&lt;/span&gt;&lt;/span&gt;&lt;font&gt;+ GetCantMotores(): &lt;i&gt;&lt;font style=&quot;color: light-dark(rgb(0, 0, 0), rgb(157, 175, 223));&quot;&gt;int&lt;/font&gt;&lt;/i&gt;&lt;font style=&quot;&quot;&gt;&lt;br&gt;&lt;font style=&quot;&quot;&gt;&lt;font style=&quot;color: light-dark(rgb(0, 0, 0), rgb(192, 192, 192));&quot;&gt;+ GetCarrosProducidos():&lt;/font&gt;&lt;span style=&quot;color: light-dark(rgb(0, 0, 0), rgb(255, 255, 255));&quot;&gt;&amp;nbsp;&lt;/span&gt;&lt;i style=&quot;&quot;&gt;&lt;font style=&quot;color: light-dark(rgb(0, 0, 0), rgb(157, 175, 223));&quot;&gt;int&lt;/font&gt;&lt;/i&gt;&lt;span style=&quot;color: light-dark(rgb(0, 0, 0), rgb(255, 255, 255));&quot;&gt;&lt;br&gt;&lt;/span&gt;&lt;font style=&quot;color: light-dark(rgb(0, 0, 0), rgb(192, 192, 192));&quot;&gt;+ GetFichaTecnica(): &lt;/font&gt;&lt;font style=&quot;color: light-dark(rgb(0, 0, 0), rgb(157, 175, 223));&quot;&gt;string&lt;/font&gt;&lt;br&gt;&lt;font style=&quot;color: light-dark(rgb(0, 0, 0), rgb(192, 192, 192));&quot;&gt;+ GetPlanProdAnualMotor():&lt;/font&gt;&lt;span style=&quot;color: light-dark(rgb(0, 0, 0), rgb(255, 255, 255));&quot;&gt; &lt;/span&gt;&lt;font style=&quot;color: light-dark(rgb(0, 0, 0), rgb(157, 175, 223));&quot;&gt;string&lt;/font&gt;&lt;br&gt;&lt;font style=&quot;color: light-dark(rgb(0, 0, 0), rgb(192, 192, 192));&quot;&gt;+&amp;nbsp;GetPlanProdAnualCarro():&lt;/font&gt;&lt;span style=&quot;color: light-dark(rgb(0, 0, 0), rgb(255, 255, 255));&quot;&gt; &lt;/span&gt;&lt;font style=&quot;color: light-dark(rgb(0, 0, 0), rgb(157, 175, 223));&quot;&gt;string&lt;/font&gt;&lt;br&gt;&lt;/font&gt;&lt;/font&gt;&lt;/font&gt;&lt;font&gt;&lt;font style=&quot;&quot;&gt;+ &lt;/font&gt;&lt;font style=&quot;&quot;&gt;&lt;font style=&quot;&quot;&gt;S&lt;font style=&quot;color: light-dark(rgb(192, 192, 192), rgb(192, 192, 192));&quot;&gt;etCantMotores(cantM: &lt;/font&gt;&lt;font style=&quot;color: light-dark(rgb(192, 192, 192), rgb(167, 191, 255));&quot;&gt;int&lt;/font&gt;&lt;font style=&quot;color: light-dark(rgb(192, 192, 192), rgb(192, 192, 192));&quot;&gt;): &lt;/font&gt;&lt;font style=&quot;color: light-dark(rgb(192, 192, 192), rgb(157, 175, 223));&quot;&gt;void&lt;/font&gt;&lt;br&gt;&lt;font style=&quot;color: light-dark(rgb(0, 0, 0), rgb(192, 192, 192));&quot;&gt;+ S&lt;/font&gt;&lt;font style=&quot;&quot;&gt;&lt;font style=&quot;color: light-dark(rgb(0, 0, 0), rgb(192, 192, 192));&quot;&gt;etCarrosProducidos(cantC: &lt;/font&gt;&lt;font style=&quot;color: light-dark(rgb(0, 0, 0), rgb(167, 191, 255));&quot;&gt;int&lt;/font&gt;&lt;font style=&quot;color: light-dark(rgb(0, 0, 0), rgb(192, 192, 192));&quot;&gt;):&lt;/font&gt;&lt;font style=&quot;color: light-dark(rgb(192, 192, 192), rgb(157, 175, 223));&quot;&gt; void&lt;/font&gt;&lt;/font&gt;&lt;br&gt;&lt;span style=&quot;color: rgb(192, 192, 192);&quot;&gt;&amp;nbsp; &amp;nbsp; &amp;nbsp; &amp;nbsp;&lt;/span&gt;&lt;font style=&quot;&quot;&gt;&lt;span style=&quot;color: light-dark(rgb(0, 0, 0), rgb(192, 192, 192));&quot;&gt; &lt;/span&gt;&lt;font style=&quot;&quot;&gt;&lt;font style=&quot;color: light-dark(rgb(0, 0, 0), rgb(192, 192, 192));&quot;&gt;+ S&lt;/font&gt;&lt;font style=&quot;color: light-dark(rgb(0, 0, 0), rgb(192, 192, 192));&quot;&gt;etFichaTecnica(fichaT: &lt;/font&gt;&lt;font style=&quot;color: light-dark(rgb(0, 0, 0), rgb(167, 191, 255));&quot;&gt;string&lt;/font&gt;&lt;font style=&quot;color: light-dark(rgb(0, 0, 0), rgb(192, 192, 192));&quot;&gt;):&lt;/font&gt;&lt;/font&gt;&lt;font style=&quot;color: light-dark(rgb(0, 0, 0), rgb(157, 175, 223));&quot;&gt; void&lt;/font&gt;&lt;br&gt;&lt;span style=&quot;color: light-dark(rgb(0, 0, 0), rgb(192, 192, 192));&quot;&gt;+ S&lt;/span&gt;&lt;span style=&quot;color: light-dark(rgb(0, 0, 0), rgb(192, 192, 192));&quot;&gt;etPlanProdAnualMotor(planM: &lt;/span&gt;&lt;font style=&quot;color: light-dark(rgb(0, 0, 0), rgb(167, 191, 255));&quot;&gt;string&lt;/font&gt;&lt;span style=&quot;color: light-dark(rgb(0, 0, 0), rgb(192, 192, 192));&quot;&gt;): &lt;/span&gt;&lt;font style=&quot;color: light-dark(rgb(0, 0, 0), rgb(157, 175, 223));&quot;&gt;void&lt;/font&gt;&lt;br&gt;&lt;font style=&quot;color: light-dark(rgb(0, 0, 0), rgb(192, 192, 192));&quot;&gt;+ S&lt;/font&gt;&lt;/font&gt;&lt;/font&gt;&lt;font style=&quot;&quot;&gt;&lt;font style=&quot;color: light-dark(rgb(0, 0, 0), rgb(192, 192, 192));&quot;&gt;etPlanProdAnualCarro(planC: &lt;/font&gt;&lt;font style=&quot;color: light-dark(rgb(0, 0, 0), rgb(167, 191, 255));&quot;&gt;string&lt;/font&gt;&lt;font style=&quot;color: light-dark(rgb(0, 0, 0), rgb(192, 192, 192));&quot;&gt;):&lt;/font&gt;&lt;font style=&quot;color: light-dark(rgb(192, 192, 192), rgb(157, 175, 223));&quot;&gt; void&lt;br&gt;&lt;/font&gt;&lt;/font&gt;&lt;/font&gt;&lt;/font&gt;&lt;font style=&quot;color: light-dark(rgb(192, 192, 192), rgb(192, 192, 192));&quot;&gt;&lt;br&gt;+ RegistrarMotor(&lt;/font&gt;&lt;font style=&quot;color: light-dark(rgb(192, 192, 192), rgb(167, 191, 255));&quot;&gt;Motor &lt;/font&gt;&lt;font style=&quot;color: light-dark(rgb(192, 192, 192), rgb(192, 192, 192));&quot;&gt;motor)&lt;br&gt;+ RegistrarCarro(&lt;/font&gt;&lt;font style=&quot;color: light-dark(rgb(192, 192, 192), rgb(167, 191, 255));&quot;&gt;Carro &lt;/font&gt;&lt;font style=&quot;color: light-dark(rgb(192, 192, 192), rgb(192, 192, 192));&quot;&gt;carro)&lt;br&gt;+ MotoresDisponiblesPorTipo()&lt;br&gt;+ CarrosMayorVelocidad(); (&amp;gt; 150Km/h)&lt;br&gt;+ OmnibusMayorCapacidad()&lt;br&gt;+ MostrarFichaCarrosConSuMotor()&lt;br&gt;+ DarBajaCarros(&lt;/font&gt;&lt;font style=&quot;color: light-dark(rgb(192, 192, 192), rgb(167, 191, 255));&quot;&gt;Carro &lt;/font&gt;&lt;font style=&quot;color: light-dark(rgb(192, 192, 192), rgb(192, 192, 192));&quot;&gt;carro)&lt;br&gt;+ ListaCarrosConMotoresReensamblados()&lt;br&gt;+ CalcularPorcentajePlanCumplimiento()&lt;br&gt;+ CalcularGananciaTotal()&lt;br&gt;+&lt;/font&gt;&lt;/td&gt;&lt;/tr&gt;&lt;/tbody&gt;&lt;/table&gt;" style="text;html=1;whiteSpace=wrap;overflow=fill;rounded=0;arcSize=2;shadow=1;glass=1;fillColor=#d5e8d4;strokeColor=#82b366;gradientColor=#97d077;textShadow=0;labelBackgroundColor=none;labelBorderColor=none;sketch=1;curveFitting=1;jiggle=2;" parent="1" vertex="1">
                    <mxGeometry x="690" y="-130" width="310" height="480" as="geometry"/>
                </mxCell>
                <mxCell id="12" style="edgeStyle=none;rounded=0;html=1;exitX=0.5;exitY=0;exitDx=0;exitDy=0;sketch=1;curveFitting=1;jiggle=2;entryX=-0.01;entryY=0.568;entryDx=0;entryDy=0;entryPerimeter=0;" parent="1" source="6" target="18" edge="1">
                    <mxGeometry relative="1" as="geometry">
                        <mxPoint x="320" y="470" as="sourcePoint"/>
                        <Array as="points">
                            <mxPoint x="99" y="424"/>
                        </Array>
                        <mxPoint x="270" y="357" as="targetPoint"/>
                    </mxGeometry>
                </mxCell>
                <mxCell id="13" value="" style="edgeStyle=none;rounded=0;html=1;sketch=1;curveFitting=1;jiggle=2;exitX=0.75;exitY=0;exitDx=0;exitDy=0;entryX=0.483;entryY=1;entryDx=0;entryDy=0;entryPerimeter=0;" parent="1" source="10" target="18" edge="1">
                    <mxGeometry relative="1" as="geometry">
                        <mxPoint x="433" y="520" as="sourcePoint"/>
                        <mxPoint x="417" y="528" as="targetPoint"/>
                    </mxGeometry>
                </mxCell>
                <mxCell id="15" style="edgeStyle=none;rounded=0;html=1;exitX=0.75;exitY=0;exitDx=0;exitDy=0;sketch=1;curveFitting=1;jiggle=2;entryX=1.003;entryY=0.713;entryDx=0;entryDy=0;entryPerimeter=0;" parent="1" source="11" target="18" edge="1">
                    <mxGeometry relative="1" as="geometry">
                        <mxPoint x="540" y="470" as="sourcePoint"/>
                        <mxPoint x="670" y="560" as="targetPoint"/>
                        <Array as="points">
                            <mxPoint x="670" y="470"/>
                        </Array>
                    </mxGeometry>
                </mxCell>
                <mxCell id="6" value="&lt;table border=&quot;1&quot; width=&quot;100%&quot; height=&quot;100%&quot; cellpadding=&quot;4&quot; style=&quot;width:100%;height:100%;border-collapse:collapse;&quot;&gt;&lt;tbody&gt;&lt;tr&gt;&lt;th align=&quot;center&quot;&gt;&lt;font style=&quot;font-size: 16px;&quot;&gt;MotorAlta&lt;/font&gt;&lt;/th&gt;&lt;/tr&gt;&lt;tr&gt;&lt;td align=&quot;center&quot;&gt;&lt;br&gt;- maxRevolucionesMin:&lt;font style=&quot;color: light-dark(rgb(0, 0, 0), rgb(167, 191, 255));&quot;&gt;float&lt;/font&gt;&lt;br&gt;- consumoKmL:&lt;font style=&quot;color: light-dark(rgb(0, 0, 0), rgb(167, 191, 255));&quot;&gt;float&amp;nbsp;&lt;/font&gt;&lt;/td&gt;&lt;/tr&gt;&lt;tr&gt;&lt;td align=&quot;center&quot;&gt;&lt;font color=&quot;#484848&quot;&gt;+MotorAlta(maxRevolucionesMin: &lt;/font&gt;&lt;font style=&quot;color: light-dark(rgb(0, 0, 0), rgb(167, 191, 255));&quot;&gt;float&lt;/font&gt;&lt;font color=&quot;#484848&quot;&gt;)&lt;br&gt;&lt;/font&gt;&lt;span&gt;&lt;font style=&quot;color: light-dark(rgb(0, 0, 0), rgb(192, 192, 192));&quot;&gt;+ Costo(&lt;/font&gt;&lt;/span&gt;&lt;font style=&quot;&quot;&gt;&lt;font style=&quot;&quot;&gt;&lt;span&gt;&lt;font style=&quot;color: light-dark(rgb(192, 192, 192), rgb(192, 192, 192));&quot;&gt;cantRegresoDefectos:&lt;/font&gt;&lt;/span&gt;&lt;span style=&quot;color: rgb(192, 192, 192);&quot;&gt;&amp;nbsp;&lt;/span&gt;&lt;/font&gt;&lt;font style=&quot;color: light-dark(rgb(0, 0, 0), rgb(167, 191, 255));&quot;&gt;&lt;span&gt;&lt;font style=&quot;&quot;&gt;in&lt;/font&gt;&lt;/span&gt;&lt;font style=&quot;&quot;&gt;t&lt;/font&gt;&lt;/font&gt;):&lt;/font&gt;&lt;font style=&quot;color: light-dark(rgb(0, 0, 0), rgb(167, 191, 255));&quot;&gt;&amp;nbsp;double&amp;lt;&amp;lt;override&amp;gt;&amp;gt;&lt;/font&gt;&lt;font color=&quot;#484848&quot;&gt;&lt;/font&gt;&lt;/td&gt;&lt;/tr&gt;&lt;/tbody&gt;&lt;/table&gt;" style="text;html=1;whiteSpace=wrap;overflow=fill;rounded=0;arcSize=0;shadow=1;glass=1;sketch=1;curveFitting=1;jiggle=2;fillColor=#dae8fc;gradientColor=#7ea6e0;strokeColor=#6c8ebf;" parent="1" vertex="1">
                    <mxGeometry x="-140" y="560" width="320" height="200" as="geometry"/>
                </mxCell>
                <mxCell id="10" value="&lt;table border=&quot;1&quot; width=&quot;100%&quot; height=&quot;100%&quot; cellpadding=&quot;4&quot; style=&quot;width:100%;height:100%;border-collapse:collapse;&quot;&gt;&lt;tbody&gt;&lt;tr&gt;&lt;th align=&quot;center&quot;&gt;&lt;font style=&quot;font-size: 16px;&quot;&gt;MotorFuerza&lt;/font&gt;&lt;/th&gt;&lt;/tr&gt;&lt;tr&gt;&lt;td align=&quot;center&quot;&gt;&lt;br&gt;- cantCaballosF[80-4000]:&lt;font style=&quot;color: light-dark(rgb(0, 0, 0), rgb(167, 191, 255));&quot;&gt;int&lt;/font&gt;&lt;br&gt;&lt;br&gt;&lt;br&gt;&lt;/td&gt;&lt;/tr&gt;&lt;tr&gt;&lt;td align=&quot;center&quot;&gt;+ MotorFuerza(cantCaballosF: int)&lt;br&gt;&lt;font&gt;&lt;span&gt;&lt;font style=&quot;color: light-dark(rgb(0, 0, 0), rgb(192, 192, 192));&quot;&gt;+ &lt;/font&gt;&lt;/span&gt;&lt;font style=&quot;&quot;&gt;&lt;span&gt;&lt;font style=&quot;color: light-dark(rgb(0, 0, 0), rgb(192, 192, 192));&quot;&gt;Costo(&lt;/font&gt;&lt;/span&gt;&lt;font&gt;&lt;span&gt;&lt;font style=&quot;color: light-dark(rgb(0, 0, 0), rgb(192, 192, 192));&quot;&gt;cantRegresoDefectos:&lt;/font&gt;&lt;/span&gt;&lt;span style=&quot;color: rgb(192, 192, 192);&quot;&gt;&amp;nbsp;&lt;/span&gt;&lt;span style=&quot;color: rgb(192, 192, 192);&quot;&gt;&lt;font style=&quot;color: light-dark(rgb(192, 192, 192), rgb(167, 191, 255));&quot;&gt;in&lt;/font&gt;&lt;/span&gt;&lt;font style=&quot;color: light-dark(rgb(192, 192, 192), rgb(167, 191, 255));&quot;&gt;&lt;font style=&quot;color: light-dark(rgb(192, 192, 192), rgb(167, 191, 255));&quot;&gt;t&lt;/font&gt;):&lt;/font&gt;&lt;/font&gt;&lt;/font&gt;&lt;/font&gt;&lt;span style=&quot;color: rgb(192, 192, 192);&quot;&gt;&amp;nbsp;&lt;/span&gt;&lt;font style=&quot;color: light-dark(rgb(0, 0, 0), rgb(167, 191, 255));&quot;&gt;double&amp;lt;&amp;lt;override&amp;gt;&amp;gt;&lt;/font&gt;&lt;/td&gt;&lt;/tr&gt;&lt;/tbody&gt;&lt;/table&gt;" style="text;html=1;whiteSpace=wrap;overflow=fill;rounded=0;arcSize=0;glass=1;shadow=1;sketch=1;curveFitting=1;jiggle=2;fillColor=#dae8fc;gradientColor=#7ea6e0;strokeColor=#6c8ebf;" parent="1" vertex="1">
                    <mxGeometry x="190" y="560" width="310" height="200" as="geometry"/>
                </mxCell>
                <mxCell id="11" value="&lt;table border=&quot;1&quot; width=&quot;100%&quot; height=&quot;100%&quot; cellpadding=&quot;4&quot; style=&quot;width:100%;height:100%;border-collapse:collapse;&quot;&gt;&lt;tbody&gt;&lt;tr&gt;&lt;th align=&quot;center&quot;&gt;&lt;font style=&quot;font-size: 16px;&quot;&gt;MotorTrabajo&lt;/font&gt;&lt;/th&gt;&lt;/tr&gt;&lt;tr&gt;&lt;td align=&quot;center&quot;&gt;&lt;br&gt;- esArtesanal: &lt;font style=&quot;color: light-dark(rgb(0, 0, 0), rgb(167, 191, 255));&quot;&gt;boolean&lt;/font&gt;&lt;br&gt;&lt;br&gt;&lt;/td&gt;&lt;/tr&gt;&lt;tr&gt;&lt;td align=&quot;center&quot;&gt;+ MotorTrabajo(esArtesanal: &lt;font style=&quot;color: light-dark(rgb(0, 0, 0), rgb(167, 191, 255));&quot;&gt;boolean&lt;/font&gt;)&lt;br&gt;&lt;font&gt;&lt;span&gt;&lt;font style=&quot;color: light-dark(rgb(0, 0, 0), rgb(192, 192, 192));&quot;&gt;+ Costo(&lt;/font&gt;&lt;/span&gt;&lt;font&gt;&lt;font style=&quot;&quot;&gt;&lt;span&gt;&lt;font style=&quot;color: light-dark(rgb(192, 192, 192), rgb(192, 192, 192));&quot;&gt;cantRegresoDefectos:&lt;/font&gt;&lt;/span&gt;&lt;span style=&quot;color: rgb(192, 192, 192);&quot;&gt;&amp;nbsp;&lt;/span&gt;&lt;/font&gt;&lt;span style=&quot;color: rgb(192, 192, 192);&quot;&gt;&lt;font style=&quot;color: light-dark(rgb(192, 192, 192), rgb(167, 191, 255));&quot;&gt;in&lt;/font&gt;&lt;/span&gt;&lt;font style=&quot;color: light-dark(rgb(192, 192, 192), rgb(167, 191, 255));&quot;&gt;&lt;font style=&quot;color: light-dark(rgb(192, 192, 192), rgb(167, 191, 255));&quot;&gt;t&lt;/font&gt;):&lt;/font&gt;&lt;/font&gt;&lt;/font&gt;&lt;span style=&quot;color: rgb(192, 192, 192);&quot;&gt;&amp;nbsp;&lt;/span&gt;&lt;font style=&quot;color: light-dark(rgb(0, 0, 0), rgb(167, 191, 255));&quot;&gt;double&amp;lt;&amp;lt;override&amp;gt;&amp;gt;&lt;/font&gt;&lt;/td&gt;&lt;/tr&gt;&lt;/tbody&gt;&lt;/table&gt;" style="text;html=1;whiteSpace=wrap;overflow=fill;rounded=0;arcSize=0;shadow=1;glass=1;sketch=1;curveFitting=1;jiggle=2;fillColor=#dae8fc;gradientColor=#7ea6e0;strokeColor=#6c8ebf;" parent="1" vertex="1">
                    <mxGeometry x="510" y="560" width="310" height="200" as="geometry"/>
                </mxCell>
                <mxCell id="18" value="&lt;table border=&quot;1&quot; width=&quot;100%&quot; height=&quot;100%&quot; cellpadding=&quot;4&quot; style=&quot;width:100%;height:100%;border-collapse:collapse;&quot;&gt;&lt;tbody&gt;&lt;tr&gt;&lt;th align=&quot;center&quot;&gt;&lt;font style=&quot;font-size: 16px;&quot;&gt;Motor&lt;/font&gt;&lt;/th&gt;&lt;/tr&gt;&lt;tr&gt;&lt;td align=&quot;center&quot;&gt;# idFichaTecnica:&amp;nbsp;&lt;span style=&quot;color: rgb(6, 34, 255);&quot;&gt;string&lt;/span&gt;[12]&lt;br&gt;# fechaSalida:&amp;nbsp;&lt;span style=&quot;color: rgb(6, 34, 255);&quot;&gt;Date&lt;/span&gt;&lt;br&gt;# nombreEspecialista:&amp;nbsp;&lt;span style=&quot;color: rgb(6, 34, 255);&quot;&gt;string&lt;/span&gt;&lt;br&gt;# cantRegresoDefectos:&amp;nbsp;&lt;span&gt;&lt;font style=&quot;color: light-dark(rgb(167, 191, 255), rgb(167, 191, 255));&quot;&gt;int&lt;br&gt;&lt;/font&gt;&lt;/span&gt;# tipoMotor: &lt;font style=&quot;color: light-dark(rgb(0, 0, 0), rgb(157, 175, 223));&quot;&gt;string&lt;/font&gt;&lt;/td&gt;&lt;/tr&gt;&lt;tr&gt;&lt;td align=&quot;center&quot;&gt;+ Motor(&lt;span style=&quot;color: rgb(192, 192, 192);&quot;&gt;&lt;font style=&quot;color: light-dark(rgb(192, 192, 192), rgb(192, 192, 192));&quot;&gt;idFichaTecnica:&lt;/font&gt;&lt;/span&gt;&lt;span style=&quot;color: rgb(192, 192, 192);&quot;&gt;&amp;nbsp;&lt;/span&gt;&lt;span style=&quot;color: rgb(6, 34, 255);&quot;&gt;&lt;font style=&quot;color: light-dark(rgb(6, 34, 255), rgb(157, 175, 223));&quot;&gt;string&lt;/font&gt;,...&lt;/span&gt;)&lt;br&gt;+ Costo(&lt;font style=&quot;&quot;&gt;&lt;font&gt;&lt;span style=&quot;color: rgb(192, 192, 192);&quot;&gt;&lt;font style=&quot;color: light-dark(rgb(192, 192, 192), rgb(192, 192, 192));&quot;&gt;cantRegresoDefectos:&lt;/font&gt;&lt;/span&gt;&lt;span style=&quot;color: rgb(192, 192, 192);&quot;&gt;&amp;nbsp;&lt;/span&gt;&lt;span style=&quot;color: rgb(192, 192, 192);&quot;&gt;&lt;font style=&quot;color: light-dark(rgb(0, 0, 0), rgb(157, 175, 223));&quot;&gt;in&lt;/font&gt;&lt;/span&gt;&lt;/font&gt;&lt;span&gt;&lt;font style=&quot;color: light-dark(rgb(0, 0, 0), rgb(157, 175, 223));&quot;&gt;t&lt;/font&gt;&lt;/span&gt;&lt;font style=&quot;color: light-dark(rgb(0, 0, 0), rgb(192, 192, 192));&quot;&gt;):&lt;/font&gt;&lt;/font&gt; &lt;font style=&quot;color: light-dark(rgb(0, 0, 0), rgb(157, 175, 223));&quot;&gt;double&amp;lt;&amp;lt;virtual&amp;gt;&amp;gt;&lt;br&gt;&lt;/font&gt;+ GetIdFichaTecnica(): &lt;font&gt;&lt;font style=&quot;color: light-dark(rgb(6, 34, 255), rgb(157, 175, 223));&quot;&gt;string&amp;lt;&amp;lt;virtual&amp;gt;&amp;gt;&lt;/font&gt;&lt;br&gt;&lt;span style=&quot;color: rgb(192, 192, 192);&quot;&gt;&lt;font style=&quot;color: light-dark(rgb(192, 192, 192), rgb(192, 192, 192));&quot;&gt;+ GetFechaSalida():&lt;/font&gt;&lt;/span&gt;&lt;span style=&quot;color: rgb(192, 192, 192);&quot;&gt;&amp;nbsp;&lt;/span&gt;&lt;span&gt;&lt;font style=&quot;color: light-dark(rgb(6, 34, 255), rgb(157, 175, 223));&quot;&gt;Fecha&lt;/font&gt;&lt;span&gt;&lt;font style=&quot;color: light-dark(rgb(157, 175, 223), rgb(167, 191, 255));&quot;&gt;&amp;lt;&amp;lt;virtual&amp;gt;&amp;gt;&lt;/font&gt;&lt;/span&gt;&lt;br&gt;&lt;span style=&quot;color: rgb(192, 192, 192);&quot;&gt;&lt;font style=&quot;color: light-dark(rgb(192, 192, 192), rgb(192, 192, 192));&quot;&gt;+ GetNombreEspecialista():&lt;/font&gt;&lt;/span&gt;&lt;span style=&quot;color: rgb(192, 192, 192);&quot;&gt;&amp;nbsp;&lt;/span&gt;&lt;font style=&quot;color: light-dark(rgb(192, 192, 192), rgb(157, 175, 223));&quot;&gt;string&lt;/font&gt;&lt;span&gt;&lt;font style=&quot;color: light-dark(rgb(157, 175, 223), rgb(167, 191, 255));&quot;&gt;&amp;lt;&amp;lt;virtual&amp;gt;&amp;gt;&lt;/font&gt;&lt;/span&gt;&lt;br&gt;&lt;span style=&quot;color: rgb(192, 192, 192);&quot;&gt;&lt;font style=&quot;color: light-dark(rgb(192, 192, 192), rgb(192, 192, 192));&quot;&gt;+ GetCantRegresoDefectos():&lt;/font&gt;&lt;/span&gt;&lt;span style=&quot;color: rgb(192, 192, 192);&quot;&gt;&amp;nbsp;&lt;/span&gt;&lt;font style=&quot;color: light-dark(rgb(192, 192, 192), rgb(157, 175, 223));&quot;&gt;int&lt;/font&gt;&lt;span&gt;&lt;font style=&quot;color: light-dark(rgb(157, 175, 223), rgb(167, 191, 255));&quot;&gt;&amp;lt;&amp;lt;virtual&amp;gt;&amp;gt;&lt;/font&gt;&lt;/span&gt;&lt;span style=&quot;color: rgb(192, 192, 192);&quot;&gt;&lt;br&gt;&lt;/span&gt;&lt;span style=&quot;color: rgb(192, 192, 192);&quot;&gt;&lt;font style=&quot;color: light-dark(rgb(192, 192, 192), rgb(192, 192, 192));&quot;&gt;+ GetTipoMotor():&lt;/font&gt;&lt;/span&gt;&lt;span style=&quot;color: rgb(192, 192, 192);&quot;&gt;&amp;nbsp;&lt;/span&gt;&lt;font style=&quot;color: light-dark(rgb(0, 0, 0), rgb(157, 175, 223));&quot;&gt;string&lt;/font&gt;&lt;/span&gt;&lt;/font&gt;&lt;font style=&quot;color: light-dark(rgb(157, 175, 223), rgb(167, 191, 255));&quot;&gt;&amp;lt;&amp;lt;virtual&amp;gt;&amp;gt;&amp;nbsp;&lt;br&gt;&lt;/font&gt;&lt;span style=&quot;color: rgb(192, 192, 192);&quot;&gt;&lt;font style=&quot;color: light-dark(rgb(192, 192, 192), rgb(192, 192, 192));&quot;&gt;+ SetIdFichaTecnica(id:&lt;/font&gt;&lt;/span&gt;&lt;span style=&quot;color: rgb(192, 192, 192);&quot;&gt; &lt;/span&gt;&lt;font style=&quot;color: light-dark(rgb(192, 192, 192), rgb(167, 191, 255));&quot;&gt;string&lt;/font&gt;&lt;span style=&quot;color: rgb(192, 192, 192);&quot;&gt;&lt;font style=&quot;color: light-dark(rgb(192, 192, 192), rgb(192, 192, 192));&quot;&gt;):&lt;/font&gt;&lt;/span&gt;&lt;span style=&quot;color: rgb(192, 192, 192);&quot;&gt; &lt;/span&gt;&lt;font style=&quot;color: light-dark(rgb(192, 192, 192), rgb(167, 191, 255));&quot;&gt;void &amp;lt;&amp;lt;virtual&amp;gt;&amp;gt;&lt;/font&gt;&lt;font style=&quot;color: light-dark(rgb(192, 192, 192), rgb(192, 192, 192));&quot;&gt;&amp;nbsp;&lt;/font&gt;&lt;br&gt;&lt;span&gt;&lt;font style=&quot;color: light-dark(rgb(192, 192, 192), rgb(192, 192, 192));&quot;&gt;+ SetNombreEspec(nombre: &lt;/font&gt;&lt;font style=&quot;color: light-dark(rgb(192, 192, 192), rgb(167, 191, 255));&quot;&gt;string&lt;/font&gt;&lt;font style=&quot;color: light-dark(rgb(192, 192, 192), rgb(192, 192, 192));&quot;&gt;)&amp;nbsp;&lt;/font&gt;&lt;span&gt;&lt;font style=&quot;color: light-dark(rgb(167, 191, 255), rgb(167, 191, 255));&quot;&gt;void&amp;lt;&amp;lt;virtual&amp;gt;&amp;gt;&lt;/font&gt;&lt;/span&gt;&lt;br&gt;&lt;/span&gt;&lt;font style=&quot;color: light-dark(rgb(192, 192, 192), rgb(192, 192, 192));&quot;&gt;+ SetcantRegresoDef(regreso: &lt;/font&gt;&lt;font style=&quot;color: light-dark(rgb(192, 192, 192), rgb(167, 191, 255));&quot;&gt;string&lt;/font&gt;&lt;font style=&quot;color: light-dark(rgb(192, 192, 192), rgb(192, 192, 192));&quot;&gt;)&lt;/font&gt;&lt;font&gt;&lt;font style=&quot;color: light-dark(rgb(0, 0, 0), rgb(167, 191, 255));&quot;&gt;&amp;nbsp;&lt;/font&gt;&lt;span style=&quot;color: rgb(167, 191, 255);&quot;&gt;&lt;font style=&quot;color: light-dark(rgb(167, 191, 255), rgb(167, 191, 255));&quot;&gt;void&amp;lt;&amp;lt;virtual&amp;gt;&amp;gt;&lt;/font&gt;&lt;/span&gt;&lt;/font&gt;&lt;br&gt;&lt;font style=&quot;color: light-dark(rgb(192, 192, 192), rgb(192, 192, 192));&quot;&gt;+ SetTipoMotor(tipo: &lt;/font&gt;&lt;font style=&quot;color: light-dark(rgb(192, 192, 192), rgb(167, 191, 255));&quot;&gt;string&lt;/font&gt;&lt;font style=&quot;color: light-dark(rgb(192, 192, 192), rgb(192, 192, 192));&quot;&gt;)&amp;nbsp;&lt;/font&gt;&lt;span&gt;&lt;font style=&quot;color: light-dark(rgb(167, 191, 255), rgb(167, 191, 255));&quot;&gt;void&amp;lt;&amp;lt;virtual&amp;gt;&amp;gt;&lt;/font&gt;&lt;/span&gt;&lt;/td&gt;&lt;/tr&gt;&lt;/tbody&gt;&lt;/table&gt;" style="text;html=1;strokeColor=#d79b00;fillColor=#ffcd28;overflow=fill;rounded=0;arcSize=0;shadow=1;glass=1;gradientColor=#ffa500;labelBorderColor=none;labelBackgroundColor=none;textShadow=0;whiteSpace=wrap;sketch=1;curveFitting=1;jiggle=2;" parent="1" vertex="1">
                    <mxGeometry x="275.5" y="230" width="304.5" height="290" as="geometry"/>
                </mxCell>
                <mxCell id="24" style="edgeStyle=none;rounded=0;html=1;entryX=1;entryY=0.5;entryDx=0;entryDy=0;sketch=1;curveFitting=1;jiggle=2;" parent="1" source="25" target="18" edge="1">
                    <mxGeometry relative="1" as="geometry"/>
                </mxCell>
                <mxCell id="47" style="edgeStyle=none;rounded=0;html=1;exitX=0.75;exitY=0;exitDx=0;exitDy=0;sketch=1;curveFitting=1;jiggle=2;entryX=0.996;entryY=0.91;entryDx=0;entryDy=0;entryPerimeter=0;" parent="1" source="46" target="23" edge="1">
                    <mxGeometry relative="1" as="geometry">
                        <Array as="points">
                            <mxPoint x="1550" y="476"/>
                        </Array>
                        <mxPoint x="1550" y="459" as="targetPoint"/>
                    </mxGeometry>
                </mxCell>
                <mxCell id="23" value="&lt;table border=&quot;1&quot; width=&quot;100%&quot; height=&quot;100%&quot; cellpadding=&quot;4&quot; style=&quot;width: 100%; height: 100%; border-collapse: collapse; line-height: 130%;&quot;&gt;&lt;tbody&gt;&lt;tr&gt;&lt;th align=&quot;center&quot;&gt;&lt;span style=&quot;font-size: 16px;&quot;&gt;Carro&lt;/span&gt;&lt;/th&gt;&lt;/tr&gt;&lt;tr&gt;&lt;td align=&quot;center&quot;&gt;# tipoCarro:&lt;font style=&quot;color: light-dark(rgb(0, 0, 0), rgb(167, 191, 255));&quot;&gt; enum&lt;/font&gt;&lt;font style=&quot;color: light-dark(rgb(0, 0, 0), rgb(255, 255, 102));&quot;&gt;{Formula1,Omnibus,Sports,Lujo}&lt;br&gt;&lt;/font&gt;# tipoMotor: &lt;font style=&quot;color: light-dark(rgb(0, 0, 0), rgb(167, 191, 255));&quot;&gt;Motor&lt;/font&gt;&lt;br&gt;# velocidad: &lt;font style=&quot;color: light-dark(rgb(0, 0, 0), rgb(167, 191, 255));&quot;&gt;double&lt;/font&gt;&lt;br&gt;# fechaSalida: &lt;font style=&quot;color: light-dark(rgb(0, 0, 0), rgb(167, 191, 255));&quot;&gt;Date&lt;/font&gt;&lt;/td&gt;&lt;/tr&gt;&lt;tr&gt;&lt;td align=&quot;center&quot;&gt;+ Carro(tipoCarro: &lt;font style=&quot;color: light-dark(rgb(0, 0, 0), rgb(167, 191, 255));&quot;&gt;enum&lt;/font&gt;,...)&lt;br&gt;+ GetCantidadPlazas(): &lt;font style=&quot;color: light-dark(rgb(0, 0, 0), rgb(167, 191, 255));&quot;&gt;int&lt;/font&gt;&lt;span&gt;&lt;font style=&quot;color: light-dark(rgb(192, 192, 192), rgb(167, 191, 255));&quot;&gt;&amp;lt;&amp;lt;virtual&amp;gt;&amp;gt;&lt;/font&gt;&lt;/span&gt;&lt;br&gt;&lt;font style=&quot;color: light-dark(rgb(192, 192, 192), rgb(192, 192, 192));&quot;&gt;+ GetTipoMotor(): &lt;/font&gt;&lt;font style=&quot;color: light-dark(rgb(192, 192, 192), rgb(167, 191, 255));&quot;&gt;Motor&lt;/font&gt;&lt;span&gt;&lt;font style=&quot;color: light-dark(rgb(192, 192, 192), rgb(167, 191, 255));&quot;&gt;&amp;lt;&amp;lt;virtual&amp;gt;&amp;gt;&lt;/font&gt;&lt;/span&gt;&lt;br&gt;&lt;font style=&quot;color: light-dark(rgb(192, 192, 192), rgb(192, 192, 192));&quot;&gt;+ GetVelocidad(): &lt;/font&gt;&lt;font style=&quot;color: light-dark(rgb(192, 192, 192), rgb(167, 191, 255));&quot;&gt;double&lt;/font&gt;&lt;span&gt;&lt;font style=&quot;color: light-dark(rgb(192, 192, 192), rgb(167, 191, 255));&quot;&gt;&amp;lt;&amp;lt;virtual&amp;gt;&amp;gt;&lt;/font&gt;&lt;/span&gt;&lt;br&gt;+ GetFechaSalida(): &lt;font style=&quot;color: light-dark(rgb(0, 0, 0), rgb(167, 191, 255));&quot;&gt;Date&lt;/font&gt;&lt;span&gt;&lt;font style=&quot;color: light-dark(rgb(192, 192, 192), rgb(167, 191, 255));&quot;&gt;&amp;lt;&amp;lt;virtual&amp;gt;&amp;gt;&lt;/font&gt;&lt;/span&gt;&lt;br style=&quot;color: rgb(192, 192, 192);&quot;&gt;&lt;font style=&quot;&quot;&gt;&lt;span style=&quot;color: light-dark(rgb(0, 0, 0), rgb(192, 192, 192));&quot;&gt;+ SetTipoMotor(motor: &lt;/span&gt;&lt;font style=&quot;color: light-dark(rgb(0, 0, 0), rgb(167, 191, 255));&quot;&gt;Motor&lt;/font&gt;&lt;span style=&quot;color: light-dark(rgb(0, 0, 0), rgb(192, 192, 192));&quot;&gt;)&lt;/span&gt;&lt;font style=&quot;color: light-dark(rgb(0, 0, 0), rgb(167, 191, 255));&quot;&gt;: void&lt;/font&gt;&lt;/font&gt;&lt;span&gt;&lt;span&gt;&lt;font style=&quot;color: light-dark(rgb(192, 192, 192), rgb(167, 191, 255));&quot;&gt;&amp;lt;&amp;lt;virtual&amp;gt;&amp;gt;&lt;/font&gt;&lt;/span&gt;&lt;br&gt;&lt;/span&gt;&lt;font style=&quot;&quot;&gt;&lt;font style=&quot;&quot;&gt;&lt;span style=&quot;color: light-dark(rgb(0, 0, 0), rgb(192, 192, 192));&quot;&gt;+ SetVelocidad(velocidad: &lt;/span&gt;&lt;font style=&quot;color: light-dark(rgb(0, 0, 0), rgb(167, 191, 255));&quot;&gt;double&lt;/font&gt;&lt;span style=&quot;color: light-dark(rgb(0, 0, 0), rgb(192, 192, 192));&quot;&gt;)&lt;/span&gt;&lt;font style=&quot;color: light-dark(rgb(0, 0, 0), rgb(167, 191, 255));&quot;&gt;: void&lt;/font&gt;&lt;/font&gt;&lt;span&gt;&lt;span&gt;&lt;font style=&quot;color: light-dark(rgb(192, 192, 192), rgb(167, 191, 255));&quot;&gt;&amp;lt;&amp;lt;virtual&amp;gt;&amp;gt;&lt;/font&gt;&lt;/span&gt;&lt;br&gt;&lt;/span&gt;&lt;/font&gt;&lt;font style=&quot;&quot;&gt;&lt;font style=&quot;color: light-dark(rgb(192, 192, 192), rgb(192, 192, 192));&quot;&gt;+ SetFechaSalida(fecha: &lt;/font&gt;&lt;font style=&quot;color: light-dark(rgb(192, 192, 192), rgb(167, 191, 255));&quot;&gt;Date&lt;/font&gt;&lt;font style=&quot;color: light-dark(rgb(192, 192, 192), rgb(192, 192, 192));&quot;&gt;): &lt;/font&gt;&lt;font style=&quot;color: light-dark(rgb(0, 0, 0), rgb(167, 191, 255));&quot;&gt;void&lt;/font&gt;&lt;font style=&quot;&quot;&gt;&lt;span&gt;&lt;font style=&quot;color: light-dark(rgb(192, 192, 192), rgb(167, 191, 255));&quot;&gt;&amp;lt;&amp;lt;virtual&amp;gt;&amp;gt;&lt;/font&gt;&lt;/span&gt;&lt;br&gt;&lt;font style=&quot;color: light-dark(rgb(0, 0, 0), rgb(192, 192, 192));&quot;&gt;+ Costo(costoMotor: double): &lt;/font&gt;&lt;font style=&quot;color: light-dark(rgb(0, 0, 0), rgb(167, 191, 255));&quot;&gt;double&lt;/font&gt;&lt;font style=&quot;color: light-dark(rgb(0, 0, 0), rgb(167, 191, 255));&quot;&gt;&amp;lt;&amp;lt;virtual&amp;gt;&amp;gt;&lt;/font&gt;&lt;/font&gt;&lt;/font&gt;&lt;/td&gt;&lt;/tr&gt;&lt;/tbody&gt;&lt;/table&gt;" style="text;html=1;overflow=fill;rounded=0;arcSize=0;shadow=1;glass=1;labelBorderColor=none;labelBackgroundColor=none;textShadow=0;whiteSpace=wrap;sketch=1;curveFitting=1;jiggle=2;fillColor=#ffcd28;strokeColor=#d79b00;gradientColor=#ffa500;" parent="1" vertex="1">
                    <mxGeometry x="1070" y="240" width="440" height="250" as="geometry"/>
                </mxCell>
                <mxCell id="26" value="" style="edgeStyle=none;rounded=0;html=1;entryX=1;entryY=0.5;entryDx=0;entryDy=0;sketch=1;curveFitting=1;jiggle=2;" parent="1" source="23" target="25" edge="1">
                    <mxGeometry relative="1" as="geometry">
                        <mxPoint x="860" y="375" as="sourcePoint"/>
                        <mxPoint x="580" y="375" as="targetPoint"/>
                    </mxGeometry>
                </mxCell>
                <mxCell id="25" value="C" style="html=1;whiteSpace=wrap;aspect=fixed;shape=isoRectangle;rounded=0;fontColor=light-dark(#000000,#9DAFDF);sketch=1;curveFitting=1;jiggle=2;" parent="1" vertex="1">
                    <mxGeometry x="1020" y="360" width="50" height="30" as="geometry"/>
                </mxCell>
                <mxCell id="27" value="1" style="ellipse;shape=cloud;whiteSpace=wrap;html=1;rounded=0;sketch=1;curveFitting=1;jiggle=2;" parent="1" vertex="1">
                    <mxGeometry x="580" y="340" width="30" height="30" as="geometry"/>
                </mxCell>
                <mxCell id="29" value="1" style="ellipse;shape=cloud;whiteSpace=wrap;html=1;rounded=0;sketch=1;curveFitting=1;jiggle=2;" parent="1" vertex="1">
                    <mxGeometry x="1040" y="340" width="30" height="30" as="geometry"/>
                </mxCell>
                <mxCell id="36" style="edgeStyle=none;rounded=0;html=1;sketch=1;curveFitting=1;jiggle=2;exitX=0.25;exitY=0;exitDx=0;exitDy=0;" parent="1" source="39" target="23" edge="1">
                    <mxGeometry relative="1" as="geometry">
                        <mxPoint x="1076" y="410" as="sourcePoint"/>
                        <Array as="points">
                            <mxPoint x="970" y="432"/>
                        </Array>
                        <mxPoint x="910" y="448" as="targetPoint"/>
                    </mxGeometry>
                </mxCell>
                <mxCell id="37" value="" style="edgeStyle=none;rounded=0;html=1;entryX=0.465;entryY=0.999;entryDx=0;entryDy=0;sketch=1;curveFitting=1;jiggle=2;entryPerimeter=0;exitX=0.5;exitY=0;exitDx=0;exitDy=0;" parent="1" source="40" target="23" edge="1">
                    <mxGeometry relative="1" as="geometry">
                        <mxPoint x="1305" y="538" as="sourcePoint"/>
                        <mxPoint x="1253" y="560" as="targetPoint"/>
                        <Array as="points"/>
                    </mxGeometry>
                </mxCell>
                <mxCell id="38" style="edgeStyle=none;rounded=0;html=1;sketch=1;curveFitting=1;jiggle=2;exitX=0.5;exitY=0;exitDx=0;exitDy=0;entryX=1;entryY=0.5;entryDx=0;entryDy=0;" parent="1" source="41" target="23" edge="1">
                    <mxGeometry relative="1" as="geometry">
                        <mxPoint x="1510" y="410" as="sourcePoint"/>
                        <mxPoint x="1572" y="282" as="targetPoint"/>
                        <Array as="points">
                            <mxPoint x="1680" y="410"/>
                        </Array>
                    </mxGeometry>
                </mxCell>
                <mxCell id="39" value="&lt;table border=&quot;1&quot; width=&quot;100%&quot; height=&quot;100%&quot; cellpadding=&quot;4&quot; style=&quot;width:100%;height:100%;border-collapse:collapse;&quot;&gt;&lt;tbody&gt;&lt;tr&gt;&lt;th align=&quot;center&quot;&gt;&lt;font style=&quot;font-size: 16px;&quot;&gt;Formula1&lt;/font&gt;&lt;/th&gt;&lt;/tr&gt;&lt;tr&gt;&lt;td align=&quot;center&quot;&gt;&lt;br&gt;- pesoCarroceria:&lt;font style=&quot;color: light-dark(rgb(0, 0, 0), rgb(167, 191, 255));&quot;&gt;double&lt;/font&gt;&lt;br&gt;&lt;/td&gt;&lt;/tr&gt;&lt;tr&gt;&lt;td align=&quot;center&quot;&gt;+ Formula1(pesoCarroceria: &lt;font style=&quot;color: light-dark(rgb(0, 0, 0), rgb(167, 191, 255));&quot;&gt;double&lt;/font&gt;)&lt;br&gt;+ Costo(costoMotor: &lt;font style=&quot;color: light-dark(rgb(0, 0, 0), rgb(167, 191, 255));&quot;&gt;double&lt;/font&gt;): &lt;font style=&quot;color: light-dark(rgb(0, 0, 0), rgb(167, 191, 255));&quot;&gt;double&lt;/font&gt;&lt;font&gt;&lt;font style=&quot;color: light-dark(rgb(0, 0, 0), rgb(167, 191, 255));&quot;&gt;&amp;lt;&amp;lt;&lt;/font&gt;&lt;font style=&quot;color: light-dark(rgb(0, 0, 0), rgb(167, 191, 255));&quot;&gt;override&lt;/font&gt;&lt;font style=&quot;color: light-dark(rgb(0, 0, 0), rgb(167, 191, 255));&quot;&gt;&amp;gt;&amp;gt;&lt;/font&gt;&lt;/font&gt;&lt;/td&gt;&lt;/tr&gt;&lt;/tbody&gt;&lt;/table&gt;" style="text;html=1;whiteSpace=wrap;overflow=fill;rounded=0;arcSize=0;shadow=1;glass=1;sketch=1;curveFitting=1;jiggle=2;fillColor=#dae8fc;gradientColor=#7ea6e0;strokeColor=#6c8ebf;" parent="1" vertex="1">
                    <mxGeometry x="830" y="560" width="280" height="200" as="geometry"/>
                </mxCell>
                <mxCell id="40" value="&lt;table border=&quot;1&quot; width=&quot;100%&quot; height=&quot;100%&quot; cellpadding=&quot;4&quot; style=&quot;width:100%;height:100%;border-collapse:collapse;&quot;&gt;&lt;tbody&gt;&lt;tr&gt;&lt;th align=&quot;center&quot;&gt;&lt;font style=&quot;font-size: 16px;&quot;&gt;Omnibus&lt;/font&gt;&lt;/th&gt;&lt;/tr&gt;&lt;tr&gt;&lt;td align=&quot;center&quot;&gt;&lt;br&gt;- cantPuertas:&lt;font style=&quot;color: light-dark(rgb(0, 0, 0), rgb(167, 191, 255));&quot;&gt;int&lt;/font&gt;&lt;br&gt;&lt;br&gt;&lt;br&gt;&lt;/td&gt;&lt;/tr&gt;&lt;tr&gt;&lt;td align=&quot;center&quot;&gt;&lt;span&gt;&lt;font style=&quot;color: light-dark(rgb(192, 192, 192), rgb(192, 192, 192));&quot;&gt;+ Omnibus(cantPuertas: &lt;/font&gt;&lt;font style=&quot;color: light-dark(rgb(192, 192, 192), rgb(167, 191, 255));&quot;&gt;int&lt;/font&gt;&lt;font style=&quot;color: light-dark(rgb(192, 192, 192), rgb(192, 192, 192));&quot;&gt;)&lt;br&gt;+ Costo(costoMotor:&amp;nbsp;&lt;/font&gt;&lt;/span&gt;&lt;font style=&quot;color: light-dark(rgb(0, 0, 0), rgb(167, 191, 255));&quot;&gt;double&lt;/font&gt;&lt;span style=&quot;color: rgb(192, 192, 192);&quot;&gt;&lt;font style=&quot;color: light-dark(rgb(192, 192, 192), rgb(192, 192, 192));&quot;&gt;):&lt;/font&gt;&lt;/span&gt;&lt;span style=&quot;color: rgb(192, 192, 192);&quot;&gt;&amp;nbsp;&lt;/span&gt;&lt;font style=&quot;color: light-dark(rgb(0, 0, 0), rgb(167, 191, 255));&quot;&gt;double&lt;/font&gt;&lt;font style=&quot;color: light-dark(rgb(192, 192, 192), rgb(167, 191, 255));&quot;&gt;&amp;lt;&amp;lt;override&amp;gt;&amp;gt;&lt;/font&gt;&lt;/td&gt;&lt;/tr&gt;&lt;/tbody&gt;&lt;/table&gt;" style="text;html=1;whiteSpace=wrap;overflow=fill;rounded=0;arcSize=0;glass=1;shadow=1;sketch=1;curveFitting=1;jiggle=2;fillColor=#dae8fc;gradientColor=#7ea6e0;strokeColor=#6c8ebf;" parent="1" vertex="1">
                    <mxGeometry x="1120" y="560" width="280" height="200" as="geometry"/>
                </mxCell>
                <mxCell id="41" value="&lt;table border=&quot;1&quot; width=&quot;100%&quot; height=&quot;100%&quot; cellpadding=&quot;4&quot; style=&quot;width:100%;height:100%;border-collapse:collapse;&quot;&gt;&lt;tbody&gt;&lt;tr&gt;&lt;th align=&quot;center&quot;&gt;&lt;font style=&quot;font-size: 16px;&quot;&gt;Sports&lt;/font&gt;&lt;/th&gt;&lt;/tr&gt;&lt;tr&gt;&lt;td align=&quot;center&quot;&gt;&lt;br&gt;- cantVelocidadescaja:i&lt;font style=&quot;color: light-dark(rgb(0, 0, 0), rgb(167, 191, 255));&quot;&gt;nt&lt;br&gt;&lt;/font&gt;- esCambioUniversal: &lt;font style=&quot;color: light-dark(rgb(0, 0, 0), rgb(167, 191, 255));&quot;&gt;boolean&lt;/font&gt;&lt;br&gt;&lt;br&gt;&lt;/td&gt;&lt;/tr&gt;&lt;tr&gt;&lt;td align=&quot;center&quot;&gt;+ Sports(cantVelocidadesCaja: &lt;font style=&quot;color: light-dark(rgb(0, 0, 0), rgb(167, 191, 255));&quot;&gt;int&lt;/font&gt;,...)&lt;br&gt;&lt;span&gt;+ Costo(costoMotor:&amp;nbsp;&lt;/span&gt;&lt;font style=&quot;color: light-dark(rgb(0, 0, 0), rgb(167, 191, 255));&quot;&gt;double&lt;/font&gt;&lt;span&gt;&lt;font style=&quot;color: light-dark(rgb(192, 192, 192), rgb(192, 192, 192));&quot;&gt;):&lt;/font&gt;&lt;/span&gt;&lt;span style=&quot;color: rgb(192, 192, 192);&quot;&gt;&amp;nbsp;&lt;/span&gt;&lt;font style=&quot;color: light-dark(rgb(0, 0, 0), rgb(167, 191, 255));&quot;&gt;double&lt;/font&gt;&lt;font style=&quot;color: light-dark(rgb(192, 192, 192), rgb(167, 191, 255));&quot;&gt;&amp;lt;&amp;lt;override&amp;gt;&amp;gt;&lt;/font&gt;&lt;/td&gt;&lt;/tr&gt;&lt;/tbody&gt;&lt;/table&gt;" style="text;html=1;whiteSpace=wrap;overflow=fill;rounded=0;arcSize=0;shadow=1;glass=1;sketch=1;curveFitting=1;jiggle=2;fillColor=#dae8fc;gradientColor=#7ea6e0;strokeColor=#6c8ebf;" parent="1" vertex="1">
                    <mxGeometry x="1700" y="560" width="280" height="200" as="geometry"/>
                </mxCell>
                <mxCell id="46" value="&lt;table border=&quot;1&quot; width=&quot;100%&quot; height=&quot;100%&quot; cellpadding=&quot;4&quot; style=&quot;width:100%;height:100%;border-collapse:collapse;&quot;&gt;&lt;tbody&gt;&lt;tr&gt;&lt;th align=&quot;center&quot;&gt;&lt;span style=&quot;font-size: 16px;&quot;&gt;Lujo&lt;/span&gt;&lt;/th&gt;&lt;/tr&gt;&lt;tr&gt;&lt;td align=&quot;center&quot;&gt;&lt;br&gt;- costoTapiceria: &lt;font style=&quot;color: light-dark(rgb(0, 0, 0), rgb(167, 191, 255));&quot;&gt;double&lt;/font&gt;&lt;br&gt;&lt;br&gt;&lt;/td&gt;&lt;/tr&gt;&lt;tr&gt;&lt;td align=&quot;center&quot;&gt;+ Lujo(costoTapiceria: &lt;font style=&quot;color: light-dark(rgb(0, 0, 0), rgb(167, 191, 255));&quot;&gt;double&lt;/font&gt;)&lt;br&gt;&lt;span&gt;+ Costo(costoMotor:&amp;nbsp;&lt;/span&gt;&lt;font style=&quot;color: light-dark(rgb(0, 0, 0), rgb(167, 191, 255));&quot;&gt;double&lt;/font&gt;&lt;span&gt;&lt;font style=&quot;color: light-dark(rgb(192, 192, 192), rgb(192, 192, 192));&quot;&gt;):&lt;/font&gt;&lt;/span&gt;&lt;span style=&quot;color: rgb(192, 192, 192);&quot;&gt;&amp;nbsp;&lt;/span&gt;&lt;font style=&quot;color: light-dark(rgb(0, 0, 0), rgb(167, 191, 255));&quot;&gt;double&lt;/font&gt;&lt;font style=&quot;color: light-dark(rgb(192, 192, 192), rgb(167, 191, 255));&quot;&gt;&amp;lt;&amp;lt;override&amp;gt;&amp;gt;&lt;/font&gt;&lt;/td&gt;&lt;/tr&gt;&lt;/tbody&gt;&lt;/table&gt;" style="text;html=1;whiteSpace=wrap;overflow=fill;rounded=0;arcSize=0;shadow=1;glass=1;sketch=1;curveFitting=1;jiggle=2;fillColor=#dae8fc;gradientColor=#7ea6e0;strokeColor=#6c8ebf;" parent="1" vertex="1">
                    <mxGeometry x="1410" y="560" width="280" height="200" as="geometry"/>
                </mxCell>
                <mxCell id="48" style="edgeStyle=none;rounded=0;html=1;entryX=0.5;entryY=0;entryDx=0;entryDy=0;sketch=1;curveFitting=1;jiggle=2;" parent="1" source="49" target="18" edge="1">
                    <mxGeometry relative="1" as="geometry">
                        <mxPoint x="200" y="60" as="targetPoint"/>
                        <Array as="points">
                            <mxPoint x="491" y="103"/>
                        </Array>
                    </mxGeometry>
                </mxCell>
                <mxCell id="49" value="A" style="html=1;whiteSpace=wrap;aspect=fixed;shape=isoRectangle;rounded=0;fontColor=light-dark(#000000,#9DAFDF);sketch=1;curveFitting=1;jiggle=2;" parent="1" vertex="1">
                    <mxGeometry x="640" y="45" width="50" height="30" as="geometry"/>
                </mxCell>
                <mxCell id="50" value="0...*" style="ellipse;shape=cloud;whiteSpace=wrap;html=1;rounded=0;sketch=1;curveFitting=1;jiggle=2;" parent="1" vertex="1">
                    <mxGeometry x="400" y="184" width="46" height="30" as="geometry"/>
                </mxCell>
                <mxCell id="53" style="edgeStyle=none;rounded=0;html=1;entryX=0.5;entryY=0;entryDx=0;entryDy=0;sketch=1;curveFitting=1;jiggle=2;exitX=1.003;exitY=0.363;exitDx=0;exitDy=0;exitPerimeter=0;" parent="1" source="54" edge="1">
                    <mxGeometry relative="1" as="geometry">
                        <mxPoint x="1279" y="236" as="targetPoint"/>
                        <Array as="points">
                            <mxPoint x="1205" y="102"/>
                        </Array>
                    </mxGeometry>
                </mxCell>
                <mxCell id="55" value="0...*" style="ellipse;shape=cloud;whiteSpace=wrap;html=1;rounded=0;sketch=1;curveFitting=1;jiggle=2;" parent="1" vertex="1">
                    <mxGeometry x="1251" y="190" width="46" height="32" as="geometry"/>
                </mxCell>
                <mxCell id="56" value="" style="edgeStyle=none;rounded=0;html=1;entryX=0.5;entryY=0;entryDx=0;entryDy=0;sketch=1;curveFitting=1;jiggle=2;exitX=1.003;exitY=0.363;exitDx=0;exitDy=0;exitPerimeter=0;" parent="1" source="58" target="54" edge="1">
                    <mxGeometry relative="1" as="geometry">
                        <mxPoint x="1001" y="44" as="sourcePoint"/>
                        <mxPoint x="1279" y="236" as="targetPoint"/>
                        <Array as="points"/>
                    </mxGeometry>
                </mxCell>
                <mxCell id="54" value="A" style="html=1;whiteSpace=wrap;aspect=fixed;shape=isoRectangle;rounded=0;fontColor=light-dark(#000000,#9DAFDF);sketch=1;curveFitting=1;jiggle=2;" parent="1" vertex="1">
                    <mxGeometry x="1000" y="30" width="50" height="30" as="geometry"/>
                </mxCell>
                <mxCell id="57" value="1" style="ellipse;shape=cloud;whiteSpace=wrap;html=1;rounded=0;sketch=1;curveFitting=1;jiggle=2;" vertex="1" parent="1">
                    <mxGeometry x="662" y="21" width="30" height="30" as="geometry"/>
                </mxCell>
                <mxCell id="59" value="" style="edgeStyle=none;rounded=0;html=1;entryX=0.5;entryY=0;entryDx=0;entryDy=0;sketch=1;curveFitting=1;jiggle=2;exitX=1.003;exitY=0.363;exitDx=0;exitDy=0;exitPerimeter=0;" edge="1" parent="1" source="2" target="58">
                    <mxGeometry relative="1" as="geometry">
                        <mxPoint x="1001" y="44" as="sourcePoint"/>
                        <mxPoint x="1025" y="30" as="targetPoint"/>
                        <Array as="points"/>
                    </mxGeometry>
                </mxCell>
                <mxCell id="58" value="1" style="ellipse;shape=cloud;whiteSpace=wrap;html=1;rounded=0;sketch=1;curveFitting=1;jiggle=2;" vertex="1" parent="1">
                    <mxGeometry x="1000" y="6" width="30" height="30" as="geometry"/>
                </mxCell>
            </root>
        </mxGraphModel>
    </diagram>
</mxfile>